# Alias OBJ Model File
# Exported from SketchUp, (c) 2000-2012 Trimble Navigation Limited
# File units = millimeters

mtllib cylinders.mtl

g Mesh1 Model

usemtl FrontColor
v 46.6295 -4.51195e-14 -241.162
vt -1.83581 9.49456
vn 0 -1 -0
v 52.6033 -4.51195e-14 -168.876
vt -2.071 6.64865
v 44.8581 -4.51195e-14 -204.626
vt -1.76607 8.05612
f 1/1/1 2/2/1 3/3/1

v 57.7968 -4.51195e-14 -275.995
vt -2.27546 10.8659
f 2/2/1 1/1/1 4/4/1

vt -11.0419 -1.77636e-15
vn -0.904264 0 -0.426975
vt -9.60173 -1.77636e-15
vn -0.983961 0 -0.178385
v 46.6295 91.031 -241.162
vt -9.60173 3.5839
v 57.7968 91.031 -275.995
vt -11.0419 3.5839
f 4/5/2 1/6/3 5/7/3 6/8/2 

vt -9.57232 -1.77636e-15
vt -8.1322 -1.77636e-15
vn -0.996603 0 0.0823607
v 44.8581 91.031 -204.626
vt -8.1322 3.5839
vt -9.57232 3.5839
f 1/9/3 3/10/4 7/11/4 5/12/3 

vt -7.49952 -1.77636e-15
vt -6.05939 -1.77636e-15
vn -0.941328 0 0.337494
v 52.6033 91.031 -168.876
vt -6.05939 3.5839
vt -7.49952 3.5839
f 3/13/4 2/14/5 8/15/5 7/16/4 

vt -4.96471 -1.77636e-15
v 69.3373 -4.51195e-14 -136.349
vt -3.52458 -1.77636e-15
vn -0.821903 0 0.569628
v 69.3373 91.031 -136.349
vt -3.52458 3.5839
vt -4.96471 3.5839
f 2/17/5 9/18/6 10/19/6 8/20/5 

vt -2.72982 5.36807
f 2/2/1 4/4/1 9/21/1

v 77.599 -4.51195e-14 -306.75
vt -3.05508 12.0768
f 9/21/1 4/4/1 11/22/1

vt -11.808 -1.77636e-15
vn -0.762942 0 -0.646467
vt -10.3679 -1.77636e-15
vt -10.3679 3.5839
v 77.599 91.031 -306.75
vt -11.808 3.5839
f 11/23/7 4/24/2 6/25/2 12/26/7 

vt 2.27546 10.8659
vn 0 1 -0
vt 2.72982 5.36807
vt 3.05508 12.0768
f 6/27/8 10/28/8 12/29/8

vt 2.071 6.64865
f 6/27/8 8/30/8 10/28/8

vt 1.83581 9.49456
f 5/31/8 8/30/8 6/27/8

vt 1.76607 8.05612
f 8/30/8 5/31/8 7/32/8

v 72.9097 91.031 -206.944
vt 2.87046 8.14739
f 12/29/8 10/28/8 13/33/8

v 93.9197 91.031 -109.261
vt 3.69763 4.30163
f 14/34/8 13/33/8 10/28/8

v 79.0991 91.031 -178.375
vt 3.11414 7.02265
f 13/33/8 14/34/8 15/35/8

v 92.4716 91.031 -152.382
vt 3.64061 5.9993
f 15/35/8 14/34/8 16/36/8

v 112.116 91.031 -130.736
vt 4.41401 5.14709
f 16/36/8 14/34/8 17/37/8

v 124.675 91.031 -89.4591
vt 4.90848 3.52201
f 17/37/8 14/34/8 18/38/8

v 93.9197 -4.51195e-14 -109.261
vt 0.780256 -1.77636e-15
vn -0.646467 0 0.762942
v 124.675 -4.51195e-14 -89.4591
vt 2.22038 -1.77636e-15
vn -0.426975 0 0.904264
vt 2.22038 3.5839
vt 0.780256 3.5839
f 19/39/9 20/40/10 18/41/10 14/42/9 

vt -3.69763 4.30163
v 112.116 -4.51195e-14 -130.736
vt -4.41401 5.14709
vt -4.90848 3.52201
f 19/43/1 21/44/1 20/45/1

v 92.4716 -4.51195e-14 -152.382
vt -3.64061 5.9993
f 19/43/1 22/46/1 21/44/1

v 79.0991 -4.51195e-14 -178.375
vt -3.11414 7.02265
f 19/43/1 23/47/1 22/46/1

v 72.9097 -4.51195e-14 -206.944
vt -2.87046 8.14739
f 19/43/1 24/48/1 23/47/1

f 24/48/1 19/43/1 9/21/1

vt -2.14063 -1.77636e-15
vt -0.700508 -1.77636e-15
vt -0.700508 3.5839
vt -2.14063 3.5839
f 9/49/6 19/50/9 14/51/9 10/52/6 

f 9/21/1 11/22/1 24/48/1

v 74.3253 -4.51195e-14 -236.141
vt -2.92619 9.29688
f 24/48/1 11/22/1 25/53/1

v 83.2493 -4.51195e-14 -263.976
vt -3.27753 10.3928
f 25/53/1 11/22/1 26/54/1

v 104.687 -4.51195e-14 -331.332
vt -4.12152 13.0446
f 26/54/1 11/22/1 27/55/1

vt -11.8185 -1.77636e-15
vn -0.569628 0 -0.821903
vt -10.3784 -1.77636e-15
vt -10.3784 3.5839
v 104.687 91.031 -331.332
vt -11.8185 3.5839
f 27/56/11 11/57/7 12/58/7 28/59/11 

v 83.2493 91.031 -263.976
vt 3.27753 10.3928
vt 4.12152 13.0446
f 12/29/8 29/60/8 28/61/8

v 74.3253 91.031 -236.141
vt 2.92619 9.29688
f 12/29/8 30/62/8 29/60/8

f 12/29/8 13/33/8 30/62/8

vt 8.27684 -1.77636e-15
vn 0.996603 0 -0.0823607
vt 9.42768 -1.77636e-15
vn 0.983961 0 0.178385
vt 9.42768 3.5839
vt 8.27684 3.5839
f 24/63/12 25/64/13 30/65/13 13/66/12 

vt 9.74638 -1.77636e-15
vt 10.8972 -1.77636e-15
vn 0.904264 0 0.426975
vt 10.8972 3.5839
vt 9.74638 3.5839
f 25/67/13 26/68/14 29/69/14 30/70/13 

vt 10.5125 -1.77636e-15
v 99.0737 -4.51195e-14 -288.554
vt 11.6633 -1.77636e-15
vn 0.762942 0 0.646467
v 99.0737 91.031 -288.554
vt 11.6633 3.5839
vt 10.5125 3.5839
f 26/71/14 31/72/15 32/73/15 29/74/14 

vt -3.90054 11.3604
f 26/54/1 27/55/1 31/75/1

v 120.72 -4.51195e-14 -308.198
vt -4.75275 12.1338
f 31/75/1 27/55/1 33/76/1

v 137.213 -4.51195e-14 -348.066
vt -5.40211 13.7034
f 33/76/1 27/55/1 34/77/1

vt -11.0726 -1.77636e-15
vn -0.337494 0 -0.941328
vt -9.63251 -1.77636e-15
vt -9.63251 3.5839
v 137.213 91.031 -348.066
vt -11.0726 3.5839
f 34/78/16 27/79/11 28/80/11 35/81/16 

v 120.72 91.031 -308.198
vt 4.75275 12.1338
vt 5.40211 13.7034
f 28/61/8 36/82/8 35/83/8

vt 3.90054 11.3604
f 28/61/8 32/84/8 36/82/8

f 28/61/8 29/60/8 32/84/8

vt 10.523 -1.77636e-15
vt 11.6738 -1.77636e-15
vn 0.569628 0 0.821903
vt 11.6738 3.5839
vt 10.523 3.5839
f 31/85/15 33/86/17 36/87/17 32/88/15 

vt 9.77716 -1.77636e-15
v 146.713 -4.51195e-14 -321.571
vt 10.928 -1.77636e-15
vn 0.337494 0 0.941328
v 146.713 91.031 -321.571
vt 10.928 3.5839
vt 9.77716 3.5839
f 33/89/17 37/90/18 38/91/18 36/92/17 

vt -5.7761 12.6603
f 33/76/1 34/77/1 37/93/1

v 172.963 -4.51195e-14 -355.812
vt -6.80957 14.0083
f 37/93/1 34/77/1 39/94/1

vt -9.62128 -1.77636e-15
vn -0.0823607 0 -0.996603
vt -8.18116 -1.77636e-15
vt -8.18116 3.5839
v 172.963 91.031 -355.812
vt -9.62128 3.5839
f 39/95/19 34/96/16 35/97/16 40/98/19 

vt 5.7761 12.6603
vt 6.80957 14.0083
f 35/83/8 38/99/8 40/100/8

f 35/83/8 36/82/8 38/99/8

v 175.281 91.031 -327.76
vt 6.90084 12.9039
f 40/100/8 38/99/8 41/101/8

vt 8.32581 -1.77636e-15
v 175.281 -4.51195e-14 -327.76
vt 9.47664 -1.77636e-15
vn 0.0823607 0 0.996603
vt 9.47664 3.5839
vt 8.32581 3.5839
f 37/102/18 42/103/20 41/104/20 38/105/18 

vt -6.90084 12.9039
f 37/93/1 39/94/1 42/106/1

v 209.499 -4.51195e-14 -354.04
vt -8.24801 13.9386
f 42/106/1 39/94/1 43/107/1

vt -7.56333 -1.77636e-15
vn 0.178385 0 -0.983961
vt -6.12321 -1.77636e-15
vt -6.12321 3.5839
v 209.499 91.031 -354.04
vt -7.56333 3.5839
f 43/108/21 39/109/19 40/110/19 44/111/21 

vt 8.24801 13.9386
f 40/100/8 41/101/8 44/112/8

v 204.478 91.031 -326.345
vt 8.05033 12.8482
f 44/112/8 41/101/8 45/113/8

vt 6.26785 -1.77636e-15
v 204.478 -4.51195e-14 -326.345
vt 7.41869 -1.77636e-15
vn -0.178385 0 0.983961
vt 7.41869 3.5839
vt 6.26785 3.5839
f 42/114/20 46/115/22 45/116/22 41/117/20 

vt -8.05033 12.8482
f 42/106/1 43/107/1 46/118/1

v 232.314 -4.51195e-14 -317.42
vt -9.14622 12.4969
f 46/118/1 43/107/1 47/119/1

v 244.332 -4.51195e-14 -342.873
vt -9.61938 13.4989
f 47/119/1 43/107/1 48/120/1

vt -5.03902 -1.77636e-15
vn 0.426975 0 -0.904264
vt -3.5989 -1.77636e-15
vt -3.5989 3.5839
v 244.332 91.031 -342.873
vt -5.03902 3.5839
f 48/121/23 43/122/21 44/123/21 49/124/23 

v 232.314 91.031 -317.42
vt 9.14622 12.4969
vt 9.61938 13.4989
f 44/112/8 50/125/8 49/126/8

f 44/112/8 45/113/8 50/125/8

vt 3.74354 -1.77636e-15
vt 4.89438 -1.77636e-15
vt 4.89438 3.5839
vt 3.74354 3.5839
f 46/127/22 47/128/10 50/129/10 45/130/22 

vt 0.924899 -1.77636e-15
v 256.891 -4.51195e-14 -301.596
vt 2.07573 -1.77636e-15
v 256.891 91.031 -301.596
vt 2.07573 3.5839
vt 0.924899 3.5839
f 47/131/10 51/132/9 52/133/9 50/134/10 

vt -10.1138 11.8739
f 47/119/1 48/120/1 51/135/1

v 275.088 -4.51195e-14 -323.071
vt -10.8302 12.7193
f 51/135/1 48/120/1 53/136/1

vt -2.22038 -1.77636e-15
vn 0.646467 0 -0.762942
vt -0.780256 -1.77636e-15
vt -0.780256 3.5839
v 275.088 91.031 -323.071
vt -2.22038 3.5839
f 53/137/24 48/138/23 49/139/23 54/140/24 

vt 10.1138 11.8739
vt 10.8302 12.7193
f 49/126/8 52/141/8 54/142/8

f 49/126/8 50/125/8 52/141/8

v 276.536 91.031 -279.95
vt 10.8872 11.0216
f 54/142/8 52/141/8 55/143/8

vt -1.99599 -1.77636e-15
v 276.536 -4.51195e-14 -279.95
vt -0.845152 -1.77636e-15
vt -0.845152 3.5839
vt -1.99599 3.5839
f 51/144/9 56/145/6 55/146/6 52/147/9 

vt -10.8872 11.0216
f 51/135/1 53/136/1 56/148/1

v 299.67 -4.51195e-14 -295.983
vt -11.798 11.6529
f 56/148/1 53/136/1 57/149/1

vt 0.700508 -1.77636e-15
vn 0.821903 0 -0.569628
vt 2.14063 -1.77636e-15
vt 2.14063 3.5839
v 299.67 91.031 -295.983
vt 0.700508 3.5839
f 57/150/25 53/151/24 54/152/24 58/153/25 

vt 11.798 11.6529
f 54/142/8 55/143/8 58/154/8

v 289.908 91.031 -253.957
vt 11.4137 9.9983
f 58/154/8 55/143/8 59/155/8

vt -4.82006 -1.77636e-15
v 289.908 -4.51195e-14 -253.957
vt -3.66923 -1.77636e-15
vt -3.66923 3.5839
vt -4.82006 3.5839
f 56/156/6 60/157/5 59/158/5 55/159/6 

vt -11.4137 9.9983
f 56/148/1 57/149/1 60/160/1

v 296.098 -4.51195e-14 -225.388
vt -11.6574 8.87356
f 60/160/1 57/149/1 61/161/1

v 311.211 -4.51195e-14 -156.338
vt -12.2524 6.15503
f 62/162/1 61/161/1 57/149/1

v 294.682 -4.51195e-14 -196.191
vt -11.6017 7.72407
f 62/162/1 63/163/1 61/161/1

v 291.408 -4.51195e-14 -125.582
vt -11.4728 4.94418
f 64/164/1 63/163/1 62/162/1

v 285.758 -4.51195e-14 -168.356
vt -11.2503 6.62818
f 64/164/1 65/165/1 63/163/1

v 269.934 -4.51195e-14 -143.778
vt -10.6273 5.66056
f 64/164/1 66/166/1 65/165/1

v 264.321 -4.51195e-14 -101
vt -10.4063 3.97636
f 67/167/1 66/166/1 64/164/1

v 248.287 -4.51195e-14 -124.134
vt -9.7751 4.88716
f 67/167/1 68/168/1 66/166/1

v 231.794 -4.51195e-14 -84.2657
vt -9.12575 3.31755
f 69/169/1 68/168/1 67/167/1

v 222.294 -4.51195e-14 -110.761
vt -8.75175 4.36069
f 69/169/1 70/170/1 68/168/1

v 196.044 -4.51195e-14 -76.5204
vt -7.71828 3.01262
f 71/171/1 70/170/1 69/169/1

v 193.726 -4.51195e-14 -104.572
vt -7.62701 4.11701
f 71/171/1 72/172/1 70/170/1

v 164.529 -4.51195e-14 -105.988
vt -6.47752 4.17274
f 71/171/1 73/173/1 72/172/1

v 159.508 -4.51195e-14 -78.2918
vt -6.27984 3.08236
f 74/174/1 73/173/1 71/171/1

v 136.693 -4.51195e-14 -114.912
vt -5.38163 4.52408
f 74/174/1 75/175/1 73/173/1

f 20/45/1 75/175/1 74/174/1

f 20/45/1 21/44/1 75/175/1

vt -2.07573 -1.77636e-15
vt -0.924899 -1.77636e-15
vt -0.924899 3.5839
v 136.693 91.031 -114.912
vt -2.07573 3.5839
f 75/176/23 21/177/24 17/178/24 76/179/23 

vt 0.845152 -1.77636e-15
vt 1.99599 -1.77636e-15
vt 1.99599 3.5839
vt 0.845152 3.5839
f 21/180/24 22/181/25 16/182/25 17/183/24 

vt 3.66923 -1.77636e-15
vt 4.82006 -1.77636e-15
vn 0.941328 0 -0.337494
vt 4.82006 3.5839
vt 3.66923 3.5839
f 22/184/25 23/185/26 15/186/26 16/187/25 

vt 6.20404 -1.77636e-15
vt 7.35487 -1.77636e-15
vt 7.35487 3.5839
vt 6.20404 3.5839
f 23/188/26 24/189/12 13/190/12 15/191/26 

vt 5.38163 4.52408
f 17/37/8 18/38/8 76/192/8

v 159.508 91.031 -78.2918
vt 6.27984 3.08236
f 76/192/8 18/38/8 77/193/8

vt 3.5989 -1.77636e-15
vt 5.03902 -1.77636e-15
vt 5.03902 3.5839
vt 3.5989 3.5839
f 20/194/10 74/195/22 77/196/22 18/197/10 

vt 6.12321 -1.77636e-15
vt 7.56333 -1.77636e-15
v 196.044 91.031 -76.5204
vt 7.56333 3.5839
vt 6.12321 3.5839
f 74/198/22 71/199/20 78/200/20 77/201/22 

vt 8.18116 -1.77636e-15
vt 9.62128 -1.77636e-15
v 231.794 91.031 -84.2657
vt 9.62128 3.5839
vt 8.18116 3.5839
f 71/202/20 69/203/18 79/204/18 78/205/20 

vt 9.63251 -1.77636e-15
vt 11.0726 -1.77636e-15
v 264.321 91.031 -101
vt 11.0726 3.5839
vt 9.63251 3.5839
f 69/206/18 67/207/17 80/208/17 79/209/18 

vt 10.3784 -1.77636e-15
vt 11.8185 -1.77636e-15
v 291.408 91.031 -125.582
vt 11.8185 3.5839
vt 10.3784 3.5839
f 67/210/17 64/211/15 81/212/15 80/213/17 

vt 10.3679 -1.77636e-15
vt 11.808 -1.77636e-15
v 311.211 91.031 -156.338
vt 11.808 3.5839
vt 10.3679 3.5839
f 64/214/15 62/215/14 82/216/14 81/217/15 

vt 9.60173 -1.77636e-15
v 322.378 -4.51195e-14 -191.17
vt 11.0419 -1.77636e-15
v 322.378 91.031 -191.17
vt 11.0419 3.5839
vt 9.60173 3.5839
f 62/218/14 83/219/13 84/220/13 82/221/14 

v 316.404 -4.51195e-14 -263.456
vt -12.4569 10.3723
vt -12.692 7.52639
f 62/162/1 85/222/1 83/223/1

f 62/162/1 57/149/1 85/222/1

vt 3.52458 -1.77636e-15
vt 4.96471 -1.77636e-15
vt 4.96471 3.5839
v 316.404 91.031 -263.456
vt 3.52458 3.5839
f 85/224/26 57/225/25 58/226/25 86/227/26 

vt 12.2524 6.15503
vt 12.4569 10.3723
f 58/154/8 82/228/8 86/229/8

v 296.098 91.031 -225.388
vt 11.6574 8.87356
f 87/230/8 82/228/8 58/154/8

v 294.682 91.031 -196.191
vt 11.6017 7.72407
f 88/231/8 82/228/8 87/230/8

vt 11.4728 4.94418
f 88/231/8 81/232/8 82/228/8

v 285.758 91.031 -168.356
vt 11.2503 6.62818
f 89/233/8 81/232/8 88/231/8

v 269.934 91.031 -143.778
vt 10.6273 5.66056
f 90/234/8 81/232/8 89/233/8

vt 10.4063 3.97636
f 90/234/8 80/235/8 81/232/8

v 248.287 91.031 -124.134
vt 9.7751 4.88716
f 91/236/8 80/235/8 90/234/8

vt 9.12575 3.31755
f 91/236/8 79/237/8 80/235/8

v 222.294 91.031 -110.761
vt 8.75175 4.36069
f 92/238/8 79/237/8 91/236/8

vt 7.71828 3.01262
f 92/238/8 78/239/8 79/237/8

v 193.726 91.031 -104.572
vt 7.62701 4.11701
f 93/240/8 78/239/8 92/238/8

v 164.529 91.031 -105.988
vt 6.47752 4.17274
f 94/241/8 78/239/8 93/240/8

f 94/241/8 77/193/8 78/239/8

f 76/192/8 77/193/8 94/241/8

vt -4.89438 -1.77636e-15
vt -3.74354 -1.77636e-15
vt -3.74354 3.5839
vt -4.89438 3.5839
f 73/242/21 75/243/23 76/244/23 94/245/21 

vt -7.41869 -1.77636e-15
vt -6.26785 -1.77636e-15
vt -6.26785 3.5839
vt -7.41869 3.5839
f 72/246/19 73/247/21 94/248/21 93/249/19 

vt -9.47664 -1.77636e-15
vt -8.32581 -1.77636e-15
vt -8.32581 3.5839
vt -9.47664 3.5839
f 70/250/16 72/251/19 93/252/19 92/253/16 

vt -10.928 -1.77636e-15
vt -9.77716 -1.77636e-15
vt -9.77716 3.5839
vt -10.928 3.5839
f 68/254/11 70/255/16 92/256/16 91/257/11 

vt -11.6738 -1.77636e-15
vt -10.523 -1.77636e-15
vt -10.523 3.5839
vt -11.6738 3.5839
f 66/258/7 68/259/11 91/260/11 90/261/7 

vt -11.6633 -1.77636e-15
vt -10.5125 -1.77636e-15
vt -10.5125 3.5839
vt -11.6633 3.5839
f 65/262/2 66/263/7 90/264/7 89/265/2 

vt -10.8972 -1.77636e-15
vt -9.74638 -1.77636e-15
vt -9.74638 3.5839
vt -10.8972 3.5839
f 63/266/3 65/267/2 89/268/2 88/269/3 

vt -9.42768 -1.77636e-15
vt -8.27684 -1.77636e-15
vt -8.27684 3.5839
vt -9.42768 3.5839
f 61/270/4 63/271/3 88/272/3 87/273/4 

vt -7.35487 -1.77636e-15
vt -6.20404 -1.77636e-15
vt -6.20404 3.5839
vt -7.35487 3.5839
f 60/274/5 61/275/4 87/276/4 59/277/5 

f 58/154/8 59/155/8 87/230/8

vt 12.692 7.52639
f 86/229/8 82/228/8 84/278/8

v 324.149 91.031 -227.707
vt 12.7618 8.96483
f 86/229/8 84/278/8 95/279/8

vt 8.1322 -1.77636e-15
v 324.149 -4.51195e-14 -227.707
vt 9.57232 -1.77636e-15
vt 9.57232 3.5839
vt 8.1322 3.5839
f 83/280/13 96/281/12 95/282/12 84/283/13 

vt -12.7618 8.96483
f 83/223/1 85/222/1 96/284/1

vt 6.05939 -1.77636e-15
vt 7.49952 -1.77636e-15
vt 7.49952 3.5839
vt 6.05939 3.5839
f 96/285/12 85/286/26 86/287/26 95/288/12 

