# Alias OBJ Model File
# Exported from SketchUp, (c) 2000-2012 Trimble Navigation Limited
# File units = millimeters

mtllib Test2cylinders.mtl

g Mesh1 Model

usemtl FrontColor
v 196.044 -4.51195e-14 -76.5204
vt 8.18116 -1.77636e-15
vn 0.0823607 0 0.996603
v 231.794 -4.51195e-14 -84.2657
vt 9.62128 -1.77636e-15
vn 0.337494 0 0.941328
v 231.794 91.031 -84.2657
vt 9.62128 3.5839
v 196.044 91.031 -76.5204
vt 8.18116 3.5839
f 1/1/1 2/2/2 3/3/2 4/4/1 

vt 9.63251 -1.77636e-15
v 264.321 -4.51195e-14 -101
vt 11.0726 -1.77636e-15
vn 0.569628 0 0.821903
v 264.321 91.031 -101
vt 11.0726 3.5839
vt 9.63251 3.5839
f 2/5/2 5/6/3 6/7/3 3/8/2 

vt 10.3784 -1.77636e-15
v 291.408 -4.51195e-14 -125.582
vt 11.8185 -1.77636e-15
vn 0.762942 0 0.646467
v 291.408 91.031 -125.582
vt 11.8185 3.5839
vt 10.3784 3.5839
f 5/9/3 7/10/4 8/11/4 6/12/3 

vt 10.3679 -1.77636e-15
v 311.211 -4.51195e-14 -156.338
vt 11.808 -1.77636e-15
vn 0.904264 0 0.426975
v 311.211 91.031 -156.338
vt 11.808 3.5839
vt 10.3679 3.5839
f 7/13/4 9/14/5 10/15/5 8/16/4 

vt 9.60173 -1.77636e-15
v 322.378 -4.51195e-14 -191.17
vt 11.0419 -1.77636e-15
vn 0.983961 0 0.178385
v 322.378 91.031 -191.17
vt 11.0419 3.5839
vt 9.60173 3.5839
f 9/17/5 11/18/6 12/19/6 10/20/5 

vt 8.1322 -1.77636e-15
v 324.149 -4.51195e-14 -227.707
vt 9.57232 -1.77636e-15
vn 0.996603 0 -0.0823607
v 324.149 91.031 -227.707
vt 9.57232 3.5839
vt 8.1322 3.5839
f 11/21/6 13/22/7 14/23/7 12/24/6 

vt 6.05939 -1.77636e-15
v 316.404 -4.51195e-14 -263.456
vt 7.49952 -1.77636e-15
vn 0.941328 0 -0.337494
v 316.404 91.031 -263.456
vt 7.49952 3.5839
vt 6.05939 3.5839
f 13/25/7 15/26/8 16/27/8 14/28/7 

vt 3.52458 -1.77636e-15
v 299.67 -4.51195e-14 -295.983
vt 4.96471 -1.77636e-15
vn 0.821903 0 -0.569628
v 299.67 91.031 -295.983
vt 4.96471 3.5839
vt 3.52458 3.5839
f 15/29/8 17/30/9 18/31/9 16/32/8 

vt 0.700508 -1.77636e-15
v 275.088 -4.51195e-14 -323.071
vt 2.14063 -1.77636e-15
vn 0.646467 0 -0.762942
v 275.088 91.031 -323.071
vt 2.14063 3.5839
vt 0.700508 3.5839
f 17/33/9 19/34/10 20/35/10 18/36/9 

vt -2.22038 -1.77636e-15
v 244.332 -4.51195e-14 -342.873
vt -0.780256 -1.77636e-15
vn 0.426975 0 -0.904264
v 244.332 91.031 -342.873
vt -0.780256 3.5839
vt -2.22038 3.5839
f 19/37/10 21/38/11 22/39/11 20/40/10 

vt -5.03902 -1.77636e-15
v 209.499 -4.51195e-14 -354.04
vt -3.5989 -1.77636e-15
vn 0.178385 0 -0.983961
v 209.499 91.031 -354.04
vt -3.5989 3.5839
vt -5.03902 3.5839
f 21/41/11 23/42/12 24/43/12 22/44/11 

vt -7.56333 -1.77636e-15
v 172.963 -4.51195e-14 -355.812
vt -6.12321 -1.77636e-15
vn -0.0823607 0 -0.996603
v 172.963 91.031 -355.812
vt -6.12321 3.5839
vt -7.56333 3.5839
f 23/45/12 25/46/13 26/47/13 24/48/12 

vt -9.62128 -1.77636e-15
v 137.213 -4.51195e-14 -348.066
vt -8.18116 -1.77636e-15
vn -0.337494 0 -0.941328
v 137.213 91.031 -348.066
vt -8.18116 3.5839
vt -9.62128 3.5839
f 25/49/13 27/50/14 28/51/14 26/52/13 

vt -11.0726 -1.77636e-15
v 104.687 -4.51195e-14 -331.332
vt -9.63251 -1.77636e-15
vn -0.569628 0 -0.821903
v 104.687 91.031 -331.332
vt -9.63251 3.5839
vt -11.0726 3.5839
f 27/53/14 29/54/15 30/55/15 28/56/14 

vt -11.8185 -1.77636e-15
v 77.599 -4.51195e-14 -306.75
vt -10.3784 -1.77636e-15
vn -0.762942 0 -0.646467
v 77.599 91.031 -306.75
vt -10.3784 3.5839
vt -11.8185 3.5839
f 29/57/15 31/58/16 32/59/16 30/60/15 

vt -11.808 -1.77636e-15
v 57.7968 -4.51195e-14 -275.995
vt -10.3679 -1.77636e-15
vn -0.904264 0 -0.426975
v 57.7968 91.031 -275.995
vt -10.3679 3.5839
vt -11.808 3.5839
f 31/61/16 33/62/17 34/63/17 32/64/16 

vt -11.0419 -1.77636e-15
v 46.6295 -4.51195e-14 -241.162
vt -9.60173 -1.77636e-15
vn -0.983961 0 -0.178385
v 46.6295 91.031 -241.162
vt -9.60173 3.5839
vt -11.0419 3.5839
f 33/65/17 35/66/18 36/67/18 34/68/17 

vt -9.57232 -1.77636e-15
v 44.8581 -4.51195e-14 -204.626
vt -8.1322 -1.77636e-15
vn -0.996603 0 0.0823607
v 44.8581 91.031 -204.626
vt -8.1322 3.5839
vt -9.57232 3.5839
f 35/69/18 37/70/19 38/71/19 36/72/18 

vt -7.49952 -1.77636e-15
v 52.6033 -4.51195e-14 -168.876
vt -6.05939 -1.77636e-15
vn -0.941328 0 0.337494
v 52.6033 91.031 -168.876
vt -6.05939 3.5839
vt -7.49952 3.5839
f 37/73/19 39/74/20 40/75/20 38/76/19 

vt -4.96471 -1.77636e-15
v 69.3373 -4.51195e-14 -136.349
vt -3.52458 -1.77636e-15
vn -0.821903 0 0.569628
v 69.3373 91.031 -136.349
vt -3.52458 3.5839
vt -4.96471 3.5839
f 39/77/20 41/78/21 42/79/21 40/80/20 

vt -2.14063 -1.77636e-15
v 93.9197 -4.51195e-14 -109.261
vt -0.700508 -1.77636e-15
vn -0.646467 0 0.762942
v 93.9197 91.031 -109.261
vt -0.700508 3.5839
vt -2.14063 3.5839
f 41/81/21 43/82/22 44/83/22 42/84/21 

vt 0.780256 -1.77636e-15
v 124.675 -4.51195e-14 -89.4591
vt 2.22038 -1.77636e-15
vn -0.426975 0 0.904264
v 124.675 91.031 -89.4591
vt 2.22038 3.5839
vt 0.780256 3.5839
f 43/85/22 45/86/23 46/87/23 44/88/22 

vt 3.5989 -1.77636e-15
v 159.508 -4.51195e-14 -78.2918
vt 5.03902 -1.77636e-15
vn -0.178385 0 0.983961
v 159.508 91.031 -78.2918
vt 5.03902 3.5839
vt 3.5989 3.5839
f 45/89/23 47/90/24 48/91/24 46/92/23 

vt 6.12321 -1.77636e-15
vt 7.56333 -1.77636e-15
vt 7.56333 3.5839
vt 6.12321 3.5839
f 47/93/24 1/94/1 4/95/1 48/96/24 

